<svg width="941" height="226" viewBox="0 0 941 226" fill="none" xmlns="http://www.w3.org/2000/svg">
<path fill-rule="evenodd" clip-rule="evenodd" d="M786.533 59.1536C774.3 64.8019 769.428 71.3503 767.389 84.8805C764.9 101.405 776.127 116.785 796.683 125.004C805.7 128.608 813.08 132.85 813.08 134.425C813.08 144.5 797.892 137.694 787.648 132.082C782.423 129.22 777.82 127.357 777.423 127.946C763.366 148.829 762.351 151.304 766.571 154.401C784.428 167.504 812.536 170.959 828.798 162.051C833.836 159.291 840.179 152.482 842.893 146.919C852.437 127.37 842.062 108.294 816.022 97.5073C802.127 91.7531 799 88 805.166 84.3477C807.97 84.3477 814.326 86.5713 819.285 89.2879C830 95.1571 827.5 95.4521 834.232 85.1518C847.5 64.8533 848.5 69.4877 831.256 61.1985C815.672 53.7071 799.894 52.9825 786.533 59.1536Z" fill="#00E782"/>
<path fill-rule="evenodd" clip-rule="evenodd" d="M881.15 59.1536C868.917 64.8019 864.045 71.3503 862.005 84.8805C859.516 101.405 870.744 116.785 891.3 125.004C900.316 128.608 907.696 132.85 907.696 134.425C907.696 144.5 892.509 137.694 882.265 132.082C877.04 129.22 872.437 127.357 872.04 127.946C857.983 148.829 856.968 151.304 861.187 154.401C879.045 167.504 907.153 170.959 923.415 162.051C928.452 159.291 934.795 152.482 937.509 146.919C947.054 127.37 936.679 108.294 910.638 97.5073C896.744 91.7531 893.617 88 899.782 84.3477C902.587 84.3477 908.942 86.5713 913.902 89.2879C924.617 95.1571 922.117 95.4521 928.849 85.1518C942.117 64.8533 943.117 69.4877 925.873 61.1985C910.289 53.7071 894.511 52.9825 881.15 59.1536Z" fill="#00E782"/>
<path fill-rule="evenodd" clip-rule="evenodd" d="M639.383 111C639.383 141.928 664.455 167 695.383 167C726.311 167 751.383 141.928 751.383 111C751.383 80.0721 726.311 55 695.383 55C664.455 55 639.383 80.072 639.383 111ZM672.383 111C672.383 123.703 682.681 134 695.383 134C708.086 134 718.383 123.703 718.383 111C718.383 98.2974 708.086 88 695.383 88C682.681 88 672.383 98.2974 672.383 111Z" fill="#00E782"/>
<rect x="751.383" y="110" width="64" height="33" transform="rotate(90 751.383 110)" fill="#018F51"/>
<rect x="589.383" width="37" height="167" fill="#00E782"/>
<path fill-rule="evenodd" clip-rule="evenodd" d="M575.248 143.14C565.118 157.569 548.352 167 529.383 167C498.455 167 473.383 141.928 473.383 111C473.383 80.0721 498.455 55 529.383 55C549.061 55 566.368 65.1489 576.355 80.4978L548.451 98.1335C544.317 92.0194 537.319 88 529.383 88C516.681 88 506.383 98.2975 506.383 111C506.383 123.703 516.681 134 529.383 134C537.2 134 544.105 130.101 548.261 124.142L575.248 143.14Z" fill="#00E782"/>
<path fill-rule="evenodd" clip-rule="evenodd" d="M404.383 167C435.311 167 460.383 141.928 460.383 111C460.383 80.0721 435.311 55 404.383 55C373.455 55 348.383 80.0721 348.383 111C348.383 141.928 373.455 167 404.383 167ZM404.383 134C417.086 134 427.383 123.703 427.383 111C427.383 98.2975 417.086 88 404.383 88C391.681 88 381.383 98.2975 381.383 111C381.383 123.703 391.681 134 404.383 134Z" fill="#00E782"/>
<path fill-rule="evenodd" clip-rule="evenodd" d="M272.383 167C303.311 167 328.383 141.928 328.383 111C328.383 80.0721 303.311 55 272.383 55C241.455 55 216.383 80.0721 216.383 111C216.383 141.928 241.455 167 272.383 167ZM272.383 134C285.086 134 295.383 123.703 295.383 111C295.383 98.2975 285.086 88 272.383 88C259.681 88 249.383 98.2975 249.383 111C249.383 123.703 259.681 134 272.383 134Z" fill="#00E782"/>
<path fill-rule="evenodd" clip-rule="evenodd" d="M315.06 217.334C301.608 222.918 286.856 226 271.383 226C256.498 226 242.278 223.147 229.242 217.958L242.182 185.427C251.215 189.023 261.068 191 271.383 191C282.307 191 292.712 188.783 302.174 184.775L315.06 217.334Z" fill="#00E782"/>
<rect x="271.383" y="55" width="64" height="33" fill="#018F51"/>
<rect x="166.383" width="37" height="167" fill="#00E782"/>
<path fill-rule="evenodd" clip-rule="evenodd" d="M57.3201 12.9658L118.669 181.521L153.438 168.866L91.9755 0H62.0393L57.3201 12.9658Z" fill="#018F51"/>
<path fill-rule="evenodd" clip-rule="evenodd" d="M91.7348 0H62.0965L0 170.609L34.7686 183.264L96.603 13.3752L91.7348 0Z" fill="#00E782"/>
</svg>
